<svg viewBox="0 0 24 24" fill="none" xmlns="http://www.w3.org/2000/svg">
<path d="M14.2391 13.6517C13.9645 13.9464 13.6333 14.1829 13.2653 14.3468C12.8973 14.5108 12.5 14.599 12.0972 14.6061C11.6944 14.6132 11.2943 14.5391 10.9208 14.3882C10.5472 14.2373 10.2079 14.0127 9.92299 13.7279C9.63811 13.443 9.41353 13.1036 9.26265 12.7301C9.11177 12.3565 9.03767 11.9564 9.04477 11.5536C9.05188 11.1508 9.14005 10.7535 9.30402 10.3856C9.46798 10.0176 9.70439 9.68635 9.99914 9.4117M18.0591 17.4717C16.3497 18.7747 14.2682 19.4966 12.1191 19.5317C5.11914 19.5317 1.11914 11.5317 1.11914 11.5317C2.36303 9.2136 4.08828 7.18831 6.17914 5.5917L18.0591 17.4717ZM10.0191 3.7717C10.7075 3.61058 11.4122 3.53004 12.1191 3.5317C19.1191 3.5317 23.1191 11.5317 23.1191 11.5317C22.5121 12.6673 21.7882 13.7364 20.9591 14.7217L10.0191 3.7717Z" stroke="#2F3536" stroke-linecap="round" stroke-linejoin="round"/>
<path d="M1.58743 1L23 22.4126" stroke="#2F3536" stroke-linecap="round" stroke-linejoin="round"/>
</svg>
