<svg viewBox="0 0 151 151" fill="none" xmlns="http://www.w3.org/2000/svg">
<g clip-path="url(#clip0_5746_19554)">
<path d="M19.25 44.25H38" stroke="#E3E4E4" stroke-width="5" stroke-linecap="round" stroke-linejoin="round"/>
<path d="M19.25 69.25H31.75" stroke="#E3E4E4" stroke-width="5" stroke-linecap="round" stroke-linejoin="round"/>
<path d="M56.8745 55.5062L53.1245 93.0062C52.9508 94.744 53.1431 96.4988 53.689 98.1576C54.2349 99.8165 55.1224 101.343 56.2942 102.637C57.466 103.932 58.8961 104.967 60.4924 105.676C62.0887 106.384 63.8157 106.75 65.562 106.75H115.437C118.537 106.75 121.526 105.598 123.824 103.518C126.123 101.438 127.566 98.5782 127.875 95.4938L131.625 57.9938C131.798 56.256 131.606 54.5012 131.06 52.8424C130.514 51.1835 129.627 49.6575 128.455 48.3626C127.283 47.0677 125.853 46.0328 124.257 45.3244C122.66 44.6161 120.933 44.2501 119.187 44.25H69.312C66.2122 44.2501 63.223 45.402 60.9247 47.482C58.6264 49.562 57.183 52.4218 56.8745 55.5062Z" stroke="#E3E4E4" stroke-width="5" stroke-linecap="round" stroke-linejoin="round"/>
<path d="M61.75 47.375L80.3875 67.875C82.0437 69.6972 84.0427 71.1753 86.2702 72.2249C88.4977 73.2745 90.9101 73.8751 93.3698 73.9923C95.8294 74.1095 98.288 73.7411 100.605 72.9082C102.922 72.0752 105.053 70.7939 106.875 69.1375L127.375 50.5" stroke="#E3E4E4" stroke-width="5" stroke-linecap="round" stroke-linejoin="round"/>
</g>
<defs>
<clipPath id="clip0_5746_19554">
<rect width="150" height="150" fill="white" transform="translate(0.5 0.5)"/>
</clipPath>
</defs>
</svg>
