<svg viewBox="0 0 24 24" fill="none" xmlns="http://www.w3.org/2000/svg">
<path d="M12.5896 11.7675C12.5896 12.0437 12.3657 12.2675 12.0896 12.2675C11.8135 12.2675 11.5896 12.0437 11.5896 11.7675C11.5896 11.4914 11.8135 11.2675 12.0896 11.2675C12.3657 11.2675 12.5896 11.4914 12.5896 11.7675Z" stroke="#2F3536" stroke-linecap="round" stroke-linejoin="round"/>
<path d="M19.5896 11.7675C19.5896 12.0437 19.3657 12.2675 19.0896 12.2675C18.8135 12.2675 18.5896 12.0437 18.5896 11.7675C18.5896 11.4914 18.8135 11.2675 19.0896 11.2675C19.3657 11.2675 19.5896 11.4914 19.5896 11.7675Z" stroke="#2F3536" stroke-linecap="round" stroke-linejoin="round"/>
<path d="M5.5896 11.7675C5.5896 12.0437 5.36574 12.2675 5.0896 12.2675C4.81346 12.2675 4.5896 12.0437 4.5896 11.7675C4.5896 11.4914 4.81346 11.2675 5.0896 11.2675C5.36574 11.2675 5.5896 11.4914 5.5896 11.7675Z" stroke="#2F3536" stroke-linecap="round" stroke-linejoin="round"/>
</svg>
