<svg viewBox="0 0 24 24" fill="none" xmlns="http://www.w3.org/2000/svg">
<path d="M12.0466 21.827C17.5694 21.827 22.0466 17.3499 22.0466 11.827C22.0466 6.30418 17.5694 1.82703 12.0466 1.82703C6.52372 1.82703 2.04657 6.30418 2.04657 11.827C2.04657 17.3499 6.52372 21.827 12.0466 21.827Z" stroke="#2F3536" stroke-linecap="round" stroke-linejoin="round"/>
<path d="M9.1366 8.82705C9.3717 8.15871 9.83575 7.59515 10.4466 7.23618C11.0574 6.87721 11.7755 6.74598 12.4738 6.86576C13.1721 6.98553 13.8054 7.34857 14.2617 7.89057C14.7179 8.43258 14.9677 9.11857 14.9666 9.82705C14.9666 11.827 11.9666 12.827 11.9666 12.827" stroke="#2F3536" stroke-linecap="round" stroke-linejoin="round"/>
<path d="M12.0466 16.827H12.0566" stroke="#2F3536" stroke-linecap="round" stroke-linejoin="round"/>
</svg>
